<?xml version="1.0" encoding="utf-8"?>
<!-- Svg Vector Icons : http://www.onlinewebfonts.com/icon -->
<!DOCTYPE svg PUBLIC "-//W3C//DTD SVG 1.1//EN" "http://www.w3.org/Graphics/SVG/1.1/DTD/svg11.dtd">
<svg version="1.1" xmlns="http://www.w3.org/2000/svg" xmlns:xlink="http://www.w3.org/1999/xlink" x="0px" y="0px" viewBox="0 0 1000 1000" enable-background="new 0 0 1000 1000" xml:space="preserve">
<metadata> Svg Vector Icons : http://www.onlinewebfonts.com/icon </metadata>
<g><g><g><path d="M822.6,116.2h-29.5V83.9c0-40.8-32.2-73.9-71.8-73.9c-39.6,0-71.8,33.1-71.8,73.9v32.2H358.6V83.9c0-40.8-32.2-73.9-71.8-73.9C247.2,10,215,43.1,215,83.9v32.2h-37.7c-63,0-114.3,51.3-114.3,114.3v53.8h67.2h739.4h67.2v-53.8C936.9,167.4,885.7,116.2,822.6,116.2z M318.3,215.6c0,18.5-14.1,33.6-31.5,33.6c-17.3,0-31.5-15.1-31.5-33.6V83.9c0-18.5,14.1-33.6,31.5-33.6c17.3,0,31.5,15.1,31.5,33.6V215.6z M752.8,215.6c0,18.5-14.1,33.6-31.5,33.6c-17.4,0-31.5-15.1-31.5-33.6V83.9c0-18.5,14.1-33.6,31.5-33.6c17.3,0,31.5,15.1,31.5,33.6V215.6z"/><rect x="712.5" y="475.5" width="69.8" height="56.1"/><rect x="382.6" y="475.5" width="69.8" height="56.1"/><rect x="547.6" y="475.5" width="69.8" height="56.1"/><path d="M63.1,875.7c0,63,51.3,114.3,114.3,114.3h645.3c63,0,114.3-51.3,114.3-114.3V335.3H63.1V875.7z M685.6,448.6h123.6v109.9H685.6V448.6z M685.6,595.4h123.6v109.9H685.6V595.4z M685.6,742.1h123.6V852H685.6V742.1z M520.8,448.6h123.6v109.9H520.8V448.6z M520.8,595.4h123.6v109.9H520.8V595.4z M520.8,742.1h123.6V852H520.8V742.1z M355.7,448.6h123.6v109.9H355.7V448.6z M355.7,595.4h123.6v109.9H355.7V595.4z M355.7,742.1h123.6V852H355.7V742.1z M190.8,595.4h123.6v109.9H190.8V595.4z M190.8,742.1h123.6V852H190.8V742.1z"/></g></g><g></g><g></g><g></g><g></g><g></g><g></g><g></g><g></g><g></g><g></g><g></g><g></g><g></g><g></g><g></g></g>
</svg>