<?xml version="1.0" encoding="utf-8"?>
<!-- Svg Vector Icons : http://www.onlinewebfonts.com/icon -->
<!DOCTYPE svg PUBLIC "-//W3C//DTD SVG 1.1//EN" "http://www.w3.org/Graphics/SVG/1.1/DTD/svg11.dtd">
<svg version="1.1" xmlns="http://www.w3.org/2000/svg" xmlns:xlink="http://www.w3.org/1999/xlink" x="0px" y="0px" viewBox="0 0 1000 1000" enable-background="new 0 0 1000 1000" xml:space="preserve">
<metadata> Svg Vector Icons : http://www.onlinewebfonts.com/icon </metadata>
<g><path d="M481.8,669.3l2.7,117.6c6.9,0.9,13.1,2.4,20.9,2.4c4.8,0,8.1-1,12.5-1.3l1.5-109c-3.7-0.8-7-1.8-11-2.7C498.7,673.9,490.3,671.6,481.8,669.3z M408,531c-0.4,9.2,1.8,17.4,7,24.7c2.5,3.8,5.8,7.1,9.7,10l3-70.8C415.5,505.6,408.6,517.4,408,531z M497.9,475.5c-5.9,0-9.9,1-15.3,1.5l-1.5,110.4c7.3,2.2,15.5,4.5,24.7,7c5,1.5,9.1,2.7,13.8,4.1l-0.9-120.8C512,476.8,505.8,475.4,497.9,475.5z M750.3,337.6c-41.3-41.3-142-103.7-151.5-135.7c-1-3-1.9-5.9-2.7-8.5c8.9-0.9,15.7-6.7,15.7-13.5c0-7.6-8.2-13.8-18.4-13.8h-1c2.4-29.7,29.5-46,56.5-140.3C541.9-8.5,544,17.9,462.4,59.8C401.9,73,406.1-13,329.7,26.7c38.8,86,70.7,109.2,77.8,139.5c-8.8,1-15.6,6.6-15.6,13.6c0,6.9,6.8,12.6,15.6,13.5c-0.2,1.4-0.4,2.7-0.8,4.1c-8.2,33.8-112.8,95.8-157.1,140.1C152.3,434.9-43.3,971.1,311.8,984c167,6,188.1,6,188.1,6s21.3,0,188.2-6C1043.3,971.1,847.7,434.9,750.3,337.6z M658.2,717.5c-2.2,20.6-9.8,39.5-22.7,57.5c-13.1,17.3-30.8,31.1-53.4,41.3c-5.2,2.4-11,3.6-16.5,5.4l-2.6,38.2c-0.6,10.4-11.2,19.4-23.8,19.7c-12.6,0.3-22.7-7.9-22.5-18.3l0.4-30.5c-3.8,0.1-7.3,0.9-11.3,0.9c-7.2,0-13.5-0.7-20.2-1.2l0.7,30.8c0.2,10.3-9.9,18.6-22.4,18.1c-12.6-0.3-23.2-9.3-23.8-19.8l-2.8-38.3c-14.9-5.1-28.2-11.5-39.1-19.8c-25.2-19.7-43.3-52.6-53.6-90.9c-1.6-17,9.4-30,25.5-28.5c16.2,1.3,31,17.2,32.4,34.7c5.3,23.1,15.3,37,30.3,49.7l-7.2-116.2c-10-4-18.8-8-25.1-11.5c-18.1-10.4-31.4-24.2-40-41.1c-8.5-16.9-12.1-35.1-11.1-54.7c0.9-17.8,5.5-34.2,13.7-49.2c8.2-15.1,19-27.8,32.4-38c9.1-7.1,21.6-13.4,36.6-19.1l3.5-42.2c1-11.3,12.3-21.1,25.6-21.7c13.4-0.7,24,8,23.8,19.2l-0.9,34.2c3.2-0.1,6.3-0.6,9.6-0.6c8.8-0.1,16.4,0.9,24.6,1.6l-0.6-35.4c-0.2-11.2,10.6-19.8,24-19.4c13.5,0.6,24.9,10.2,25.8,21.5l3.3,44.5c1.3,0.5,2.8,0.7,4,1.2c22.9,9.7,39.9,22.2,51.3,37.6c11.4,15.4,20,40.4,25.3,66.6c0.8,18.1-11.7,32.6-28.3,32.3c-17.2-0.4-32.1-16.5-32.8-35.7c-2.5-14.1-8.1-23.8-15.1-32.5l2.2,108.4c14.2,4.7,25.7,9.1,33.7,12.8c17.4,8,30.2,19.7,38.4,34.6C657.4,678.3,660.4,696.5,658.2,717.5z M579.7,697.8c-1.2-0.9-3.4-1.7-5.2-2.5l-5.2,77.5c0.8-0.5,2-0.8,2.8-1.3c14.9-11.7,23-25.3,24.4-40.8C597.6,716.5,592.2,705.5,579.7,697.8z"/></g>
</svg>