<?xml version="1.0" encoding="UTF-8" standalone="no"?>
<svg
   xmlns:osb="http://www.openswatchbook.org/uri/2009/osb"
   xmlns:dc="http://purl.org/dc/elements/1.1/"
   xmlns:cc="http://creativecommons.org/ns#"
   xmlns:rdf="http://www.w3.org/1999/02/22-rdf-syntax-ns#"
   xmlns:svg="http://www.w3.org/2000/svg"
   xmlns="http://www.w3.org/2000/svg"
   xmlns:sodipodi="http://sodipodi.sourceforge.net/DTD/sodipodi-0.dtd"
   xmlns:inkscape="http://www.inkscape.org/namespaces/inkscape"
   version="1.1"
   wdith="64"
   height="64"
   x="0px"
   y="0px"
   viewBox="0 0 1000 1000"
   enable-background="new 0 0 1000 1000"
   xml:space="preserve"
   id="svg16"
   sodipodi:docname="move-sideways-icon.svg"
   inkscape:version="1.0.2 (e86c870879, 2021-01-15)"><defs
   id="defs20"><inkscape:path-effect
     effect="bspline"
     id="path-effect1281"
     is_visible="true"
     lpeversion="1"
     weight="33.333333"
     steps="2"
     helper_size="0"
     apply_no_weight="true"
     apply_with_weight="true"
     only_selected="false" /><marker
     style="overflow:visible"
     id="Arrow1Sstart"
     refX="0.0"
     refY="0.0"
     orient="auto"
     inkscape:stockid="Arrow1Sstart"
     inkscape:isstock="true"><path
       transform="scale(0.2) translate(6,0)"
       style="fill-rule:evenodd;stroke:#000000;stroke-width:1pt;stroke-opacity:1;fill:#000000;fill-opacity:1"
       d="M 0.0,0.0 L 5.0,-5.0 L -12.5,0.0 L 5.0,5.0 L 0.0,0.0 z "
       id="path852" /></marker><marker
     style="overflow:visible;"
     id="Arrow1Send"
     refX="0.0"
     refY="0.0"
     orient="auto"
     inkscape:stockid="Arrow1Send"
     inkscape:isstock="true"><path
       transform="scale(0.2) rotate(180) translate(6,0)"
       style="fill-rule:evenodd;stroke:#000000;stroke-width:1pt;stroke-opacity:1;fill:#000000;fill-opacity:1"
       d="M 0.0,0.0 L 5.0,-5.0 L -12.5,0.0 L 5.0,5.0 L 0.0,0.0 z "
       id="path855" /></marker><marker
     style="overflow:visible"
     id="Arrow1Mstart"
     refX="0.0"
     refY="0.0"
     orient="auto"
     inkscape:stockid="Arrow1Mstart"
     inkscape:isstock="true"><path
       transform="scale(0.4) translate(10,0)"
       style="fill-rule:evenodd;stroke:#000000;stroke-width:1pt;stroke-opacity:1;fill:#000000;fill-opacity:1"
       d="M 0.0,0.0 L 5.0,-5.0 L -12.5,0.0 L 5.0,5.0 L 0.0,0.0 z "
       id="path846" /></marker><inkscape:path-effect
     effect="bspline"
     id="path-effect838"
     is_visible="true"
     lpeversion="1"
     weight="33.333333"
     steps="2"
     helper_size="0"
     apply_no_weight="true"
     apply_with_weight="true"
     only_selected="false" /><linearGradient
     id="linearGradient2828"
     osb:paint="solid"><stop
       style="stop-color:#e00006;stop-opacity:1;"
       offset="0"
       id="stop2826" /></linearGradient><marker
     style="overflow:visible"
     id="Arrow1Sstart-9"
     refX="0"
     refY="0"
     orient="auto"
     inkscape:stockid="Arrow1Sstart"
     inkscape:isstock="true"><path
       transform="matrix(0.2,0,0,0.2,1.2,0)"
       style="fill:#000000;fill-opacity:1;fill-rule:evenodd;stroke:#000000;stroke-width:1pt;stroke-opacity:1"
       d="M 0,0 5,-5 -12.5,0 5,5 Z"
       id="path852-0" /></marker><marker
     style="overflow:visible"
     id="Arrow1Send-8"
     refX="0"
     refY="0"
     orient="auto"
     inkscape:stockid="Arrow1Send"
     inkscape:isstock="true"><path
       transform="matrix(-0.2,0,0,-0.2,-1.2,0)"
       style="fill:#000000;fill-opacity:1;fill-rule:evenodd;stroke:#000000;stroke-width:1pt;stroke-opacity:1"
       d="M 0,0 5,-5 -12.5,0 5,5 Z"
       id="path855-0" /></marker></defs><sodipodi:namedview
   pagecolor="#ffffff"
   bordercolor="#666666"
   borderopacity="1"
   objecttolerance="10"
   gridtolerance="10"
   guidetolerance="10"
   inkscape:pageopacity="0"
   inkscape:pageshadow="2"
   inkscape:window-width="1920"
   inkscape:window-height="1009"
   id="namedview18"
   showgrid="false"
   inkscape:zoom="9.5261426"
   inkscape:cx="499.32699"
   inkscape:cy="43.443199"
   inkscape:window-x="-8"
   inkscape:window-y="303"
   inkscape:window-maximized="1"
   inkscape:current-layer="g12"
   inkscape:document-rotation="0" />
<metadata
   id="metadata2"> Svg Vector Icons : http://www.onlinewebfonts.com/icon <rdf:RDF><cc:Work
     rdf:about=""><dc:format>image/svg+xml</dc:format><dc:type
       rdf:resource="http://purl.org/dc/dcmitype/StillImage" /><dc:title /></cc:Work></rdf:RDF></metadata>
<g
   id="g14"><g
     transform="translate(0.000000,511.000000) scale(0.100000,-0.100000)"
     id="g12"><path
       d="m 6430.2199,301.81707 c -75.0352,-18.0402 -154.8282,-61.7529 -209.8902,-113.04854 -48.4706,-46.5377 -50.3538,-47.4795 -85.4928,-37.0716 -107.3488,32.3136 -241.2624,18.9819 -350.4943,-33.2555 -72.1608,-34.196804 -171.9267,-133.913204 -204.2407,-202.307204 -47.4791,-102.591196 -48.4208,-117.806496 -40.8379,-795.055636 3.8161,-346.72799 3.8161,-629.77009 0,-629.77009 -2.825,0 -19.9732,10.4573 -36.0804,22.7977 -43.7127,32.3137 -108.2906,63.6365 -163.4024,77.9099 -106.4069,28.4975 -296.3737,2.825 -404.6643,-54.17 -136.788,-73.1519 -217.5229,-224.164 -217.5229,-406.5479 0,-71.2194 14.2735,-124.4476 193.783,-755.1595 l 193.7829,-678.1909 299.1992,-369.5262 298.2574,-368.5345 114.9316,-251.7197 114.9317,-251.7197 842.5351,3.8162 c 463.5428,1.8831 855.8672,6.6411 871.0325,9.5155 l 28.4975,5.6997 170.0435,755.1591 c 131.0887,583.2324 171.9266,780.7822 179.5095,869.1494 6.6411,79.7926 6.6411,228.9215 0,492.0403 -5.6993,208.007 -10.4573,487.2823 -10.4573,620.2542 0,235.5631 -0.9418,245.0786 -24.6813,315.3562 -46.5377,139.613 -120.631,229.8633 -229.8633,284.0333 -44.6545,21.8564 -69.3358,26.6144 -144.371,29.4393 l -91.1921,3.8162 -26.6139,51.2956 c -73.152,138.67119 -258.3613,239.37879 -425.5299,229.86329 l -64.5779,-3.8161 v 395.14874 c 0,428.404296 -4.7579,470.183996 -54.1205,562.317896 -32.3137,58.878104 -127.2721,150.070344 -190.9086,182.383944 -97.8827,49.4121 -227.0878,64.5779 -331.5622,39.8966 z M 6631.5857,21.599826 c 43.7128,-19.9238002 75.0352,-51.2956 89.3086,-89.309 7.5829,-18.0402 10.4577,-314.413996 10.4577,-933.726726 v -907.113 l 23.7395,-22.7981 c 32.3137,-33.2555 91.1922,-33.2555 123.5058,0 l 23.7396,22.7981 v 319.1719 c 0,341.0288 0.9417,346.7281 49.4124,390.3914 44.6541,40.8379 82.6176,53.1787 150.0703,49.412 77.9095,-3.8162 132.03,-36.0804 161.4693,-93.0753 18.0402,-35.1386 18.9816,-55.1118 18.9816,-439.8034 0,-371.4093 0.9417,-403.723 17.0988,-417.0052 8.5737,-7.5829 23.7395,-17.0984 33.255,-19.9732 18.982,-6.6411 64.5778,8.5741 75.0355,24.6817 3.7663,6.6412 7.5825,129.2052 7.5825,272.6343 0,290.6745 4.758,311.5396 65.5196,362.8352 32.3137,27.5557 95.9502,41.7797 141.546,32.3137 39.8966,-9.5155 84.5507,-59.8199 105.4656,-120.631 17.0984,-49.4125 18.0402,-93.0754 20.8652,-731.4196 l 3.8161,-678.2408 -148.1871,-647.8104 c -80.7348,-357.1358 -149.1288,-650.6846 -151.9538,-652.5682 -1.8831,-2.825 -305.8403,-7.5825 -673.4828,-11.3987 l -669.6667,-6.6411 -86.4342,189.9668 -86.4342,189.9668 -293.4994,362.8352 -292.5581,361.8934 -179.5589,625.1115 c -196.6079,685.8237 -199.4329,700.9891 -158.595,784.5983 28.4975,59.8698 77.91,83.6093 186.1507,89.3086 89.309,4.758 123.5058,-7.5825 176.6845,-62.6943 28.4979,-29.4392 55.1118,-90.2503 169.0523,-391.3326 74.0937,-195.6666 141.546,-362.8352 148.1871,-369.4768 21.8563,-23.7395 80.7348,-16.1566 106.4074,13.2827 l 21.8563,25.6725 -6.6909,1112.2451 c -5.6994,1091.42983 -5.6994,1114.22793 13.2826,1146.49213 9.5155,18.0402 36.08,46.5377 57.9363,61.7529 37.0716,26.6139 47.4795,28.4975 119.6896,28.4975 95.0084,0 120.6315,-14.224 156.7118,-86.4342 l 23.7395,-46.5377 4.8074,-864.44073 4.758,-863.4501 23.7395,-13.2823 c 27.5557,-14.2734 100.6582,-9.5155 116.8148,6.6412 8.5742,8.5246 12.3409,257.4194 16.1571,959.3997 l 4.7579,948.000626 27.5557,35.1386 c 51.2956,68.394 164.3441,93.0753 247.9035,54.1206 z"
       id="path4"
       style="stroke-width:0.495608" /><path
       style="fill:none;stroke:#000000;stroke-width:156.25px;stroke-linecap:butt;stroke-linejoin:miter;stroke-opacity:1;marker-start:url(#Arrow1Sstart);marker-end:url(#Arrow1Send)"
       d="m 5778.7311,1589.9016 c 406.45,52.2814 812.7174,104.5393 1110.7115,-40.6072 297.9942,-145.1465 487.7663,-487.5068 677.4546,-829.71575"
       id="path836"
       inkscape:path-effect="#path-effect838"
       inkscape:original-d="m 5778.7311,1589.9016 c 406.4723,52.1079 812.7397,104.3659 1218.8383,156.7784 189.9207,-342.5026 379.6928,-684.8629 569.3278,-1027.10135"
       sodipodi:nodetypes="ccc" /></g></g>
</svg>
