<?xml version="1.0" encoding="utf-8"?>
<!-- Svg Vector Icons : http://www.onlinewebfonts.com/icon -->
<!DOCTYPE svg PUBLIC "-//W3C//DTD SVG 1.1//EN" "http://www.w3.org/Graphics/SVG/1.1/DTD/svg11.dtd">
<svg version="1.1" xmlns="http://www.w3.org/2000/svg" xmlns:xlink="http://www.w3.org/1999/xlink" x="0px" y="0px" viewBox="0 0 1000 1000" enable-background="new 0 0 1000 1000" xml:space="preserve">
<metadata> Svg Vector Icons : http://www.onlinewebfonts.com/icon </metadata>
<g><path d="M833.2,990H166.8c-32.5,0-58.8-26.3-58.8-58.8V68.8c0-32.5,26.3-58.8,58.8-58.8h666.4c32.5,0,58.8,26.3,58.8,58.8v862.4C892,963.7,865.7,990,833.2,990z M852.8,78.6c0-16.2-13.2-29.4-29.4-29.4H176.6c-16.2,0-29.4,13.2-29.4,29.4v842.8c0,16.2,13.2,29.4,29.4,29.4h646.8c16.2,0,29.4-13.2,29.4-29.4V78.6z"/><path d="M264.8,794h274.4c10.8,0,19.6,8.8,19.6,19.6c0,10.8-8.8,19.6-19.6,19.6H264.8c-10.8,0-19.6-8.8-19.6-19.6C245.2,802.8,254,794,264.8,794z"/><path d="M264.8,637.2h274.4c10.8,0,19.6,8.8,19.6,19.6s-8.8,19.6-19.6,19.6H264.8c-10.8,0-19.6-8.8-19.6-19.6S254,637.2,264.8,637.2z"/><path d="M264.8,323.6h274.4c10.8,0,19.6,8.8,19.6,19.6c0,10.8-8.8,19.6-19.6,19.6H264.8c-10.8,0-19.6-8.8-19.6-19.6C245.2,332.4,254,323.6,264.8,323.6z"/><path d="M264.8,480.4h470.4c10.8,0,19.6,8.8,19.6,19.6s-8.8,19.6-19.6,19.6H264.8c-10.8,0-19.6-8.8-19.6-19.6S254,480.4,264.8,480.4z"/><path d="M264.8,166.8h274.4c10.8,0,19.6,8.8,19.6,19.6c0,10.8-8.8,19.6-19.6,19.6H264.8c-10.8,0-19.6-8.8-19.6-19.6C245.2,175.6,254,166.8,264.8,166.8z"/><path d="M696,245.2c-32.5,0-58.8-26.3-58.8-58.8c0-32.5,26.3-58.8,58.8-58.8c32.5,0,58.8,26.3,58.8,58.8C754.8,218.9,728.5,245.2,696,245.2z M696,166.8c-10.8,0-19.6,8.8-19.6,19.6c0,10.8,8.8,19.6,19.6,19.6c10.8,0,19.6-8.8,19.6-19.6C715.6,175.6,706.8,166.8,696,166.8z"/><path d="M696,402c-32.5,0-58.8-26.3-58.8-58.8c0-32.5,26.3-58.8,58.8-58.8c32.5,0,58.8,26.3,58.8,58.8C754.8,375.7,728.5,402,696,402z M696,323.6c-10.8,0-19.6,8.8-19.6,19.6c0,10.8,8.8,19.6,19.6,19.6c10.8,0,19.6-8.8,19.6-19.6C715.6,332.4,706.8,323.6,696,323.6z"/><path d="M696,715.6c-32.5,0-58.8-26.3-58.8-58.8c0-32.5,26.3-58.8,58.8-58.8c32.5,0,58.8,26.3,58.8,58.8C754.8,689.3,728.5,715.6,696,715.6z M696,637.2c-10.8,0-19.6,8.8-19.6,19.6s8.8,19.6,19.6,19.6c10.8,0,19.6-8.8,19.6-19.6S706.8,637.2,696,637.2z"/><path d="M696,872.4c-32.5,0-58.8-26.3-58.8-58.8c0-32.5,26.3-58.8,58.8-58.8c32.5,0,58.8,26.3,58.8,58.8C754.8,846.1,728.5,872.4,696,872.4z M696,794c-10.8,0-19.6,8.8-19.6,19.6c0,10.8,8.8,19.6,19.6,19.6c10.8,0,19.6-8.8,19.6-19.6C715.6,802.8,706.8,794,696,794z"/></g>
</svg>