<?xml version="1.0" encoding="utf-8"?>
<!-- Svg Vector Icons : http://www.onlinewebfonts.com/icon -->
<!DOCTYPE svg PUBLIC "-//W3C//DTD SVG 1.1//EN" "http://www.w3.org/Graphics/SVG/1.1/DTD/svg11.dtd">
<svg version="1.1" xmlns="http://www.w3.org/2000/svg" xmlns:xlink="http://www.w3.org/1999/xlink" x="0px" y="0px" viewBox="0 0 1000 1000" enable-background="new 0 0 1000 1000" xml:space="preserve">
<metadata> Svg Vector Icons : http://www.onlinewebfonts.com/icon </metadata>
<g><g transform="translate(0.000000,511.000000) scale(0.100000,-0.100000)"><path d="M5101.7,3498.8c-43.9-68.9-714.1-1863.5-704.7-1885.4c6.3-12.5,466.7-429.1,1027.3-920.8c992.8-880.1,1017.9-898.9,1149.4-898.9h134.7V-391v-184.8l-1071.1-3.1c-591.9,0-1168.2,0-1284.1,0l-209.8-3.1l-9.4-476.1c-9.4-425.9-15.7-479.2-62.6-488.6c-53.2-9.4-56.4,90.8-56.4,1775.8v1788.3H2198.4H381.9V232.2V-1553H240.9H100V-1863v-313.2l131.5-9.4l134.7-9.4l9.4-209.8l9.4-213h526.2h526.2l34.4-122.2c47-153.4,256.8-391.5,425.9-482.3c181.7-97.1,576.3-97.1,754.8,0c175.4,90.8,379,322.6,425.9,476.1l37.6,128.4h451h447.9v222.4c0,194.2,6.3,219.2,56.4,209.8c43.9-9.4,53.3-50.1,62.6-253.7l9.4-241.2h1353h1353l59.5-140.9c72-178.5,291.3-372.7,494.8-441.6c197.3-62.6,463.5-47,638.9,43.8c159.7,81.5,341.4,272.5,404,419.7l47,119h407.1h407.1v250.6v250.5h109.6h109.6v313.2v313.2h-109.6h-109.6v485.4v485.4l-147.2,3.1c-84.6,3.1-259.9,3.1-391.5-3.1l-244.3-6.3v191.1v191h338.2h338.2l353.9,936.4c194.2,516.8,350.8,952.1,344.5,967.8c-6.3,15.7-469.8,432.2-1030.4,923.9l-1014.8,898.9H6486C5731.2,3520.8,5108,3511.4,5101.7,3498.8z M8618.8,2418.3c491.7-432.2,898.9-798.6,905.1-814.3c3.1-15.7-115.9-360.2-266.2-764.2L8979,107H7773.2l-1205.8,3.1l-779.9,689c-429.1,379-836.2,739.1-905.1,798.6l-122.2,112.8l272.5,723.5c150.3,400.9,281.9,736,288.1,751.7c6.3,12.5,551.2,21.9,1208.9,21.9h1196.4L8618.8,2418.3z M3686.1-300.2V-2289h-278.7h-278.7l-43.9,128.4c-59.5,178.5-238,375.8-429.1,472.9c-225.5,115.9-532.4,119-754.8,3.1c-203.6-106.5-306.9-216.1-407.2-438.5l-81.4-181.7h-360.2h-357v2004.4v2004.4l1497.1-6.3l1493.9-9.4V-300.2z M8994.7-1615.6v-723.5l-238,9.4l-241.2,9.4l-40.7,140.9c-56.4,187.9-231.8,391.5-432.2,491.7c-451,231.7-1055.4-28.2-1183.9-510.5l-37.6-137.8H5637.2H4453.4v720.3v720.3H6724h2270.7V-1615.6z M2539.8-1991.4c341.4-172.3,360.2-679.6,37.6-898.9c-404-272.5-939.6,97.1-814.3,563.7C1850.8-1991.4,2223.4-1828.6,2539.8-1991.4z M7920.4-1982c228.6-106.5,341.4-404,247.4-651.4c-128.4-332-501.1-451-801.8-253.7c-144.1,94-219.2,247.4-219.2,451C7146.8-2054.1,7560.3-1809.8,7920.4-1982z"/><path d="M945.6,592.4v-830h767.3h767.3v830v830h-767.3H945.6V592.4z"/></g></g>
</svg>