<?xml version="1.0" encoding="UTF-8" standalone="no"?>
<svg
   xmlns:dc="http://purl.org/dc/elements/1.1/"
   xmlns:cc="http://creativecommons.org/ns#"
   xmlns:rdf="http://www.w3.org/1999/02/22-rdf-syntax-ns#"
   xmlns:svg="http://www.w3.org/2000/svg"
   xmlns="http://www.w3.org/2000/svg"
   xmlns:sodipodi="http://sodipodi.sourceforge.net/DTD/sodipodi-0.dtd"
   xmlns:inkscape="http://www.inkscape.org/namespaces/inkscape"
   version="1.1"
   wdith="64"
   height="64"
   x="0px"
   y="0px"
   viewBox="0 0 1000 1000"
   enable-background="new 0 0 1000 1000"
   xml:space="preserve"
   id="svg88"
   sodipodi:docname="section-icon.svg"
   inkscape:version="1.0.2 (e86c870879, 2021-01-15)"><defs
   id="defs92" /><sodipodi:namedview
   pagecolor="#ffffff"
   bordercolor="#666666"
   borderopacity="1"
   objecttolerance="10"
   gridtolerance="10"
   guidetolerance="10"
   inkscape:pageopacity="0"
   inkscape:pageshadow="2"
   inkscape:window-width="1920"
   inkscape:window-height="1009"
   id="namedview90"
   showgrid="false"
   inkscape:zoom="0.35355339"
   inkscape:cx="-36.249206"
   inkscape:cy="255.29686"
   inkscape:window-x="1912"
   inkscape:window-y="-8"
   inkscape:window-maximized="1"
   inkscape:current-layer="g84"
   inkscape:document-rotation="0" />
<metadata
   id="metadata2"> Svg Vector Icons : http://www.onlinewebfonts.com/icon <rdf:RDF><cc:Work
     rdf:about=""><dc:format>image/svg+xml</dc:format><dc:type
       rdf:resource="http://purl.org/dc/dcmitype/StillImage" /></cc:Work></rdf:RDF></metadata>
<g
   id="g86"
   style="fill:#ebc000;fill-opacity:1"
   transform="translate(59.39697,91.923882)"><g
     transform="matrix(0.1,0,0,-0.1,0,511)"
     id="g84"
     style="fill:#ebc000;fill-opacity:1"><path
       d="m 718.7,4994.1 c -56.5,-23.4 -85.8,-64.4 -99.5,-134.6 -9.7,-50.7 -1.9,-70.2 46.8,-120.9 41,-39 78,-58.5 120.9,-58.5 80,0 156,76 156,154 0.1,109.3 -128.6,199 -224.2,160 z"
       id="path4"
       style="fill:#ebc000;fill-opacity:1" /><path
       d="m 1352.5,4986.4 c -27.3,-13.7 -60.5,-48.8 -74.1,-76.1 -74.1,-157.9 136.5,-306.1 259.3,-181.3 81.9,79.9 60.4,204.7 -42.9,259.3 -52.6,29.2 -81.9,29.2 -142.3,-1.9 z"
       id="path6"
       style="fill:#ebc000;fill-opacity:1" /><path
       d="m 2005.7,4992.2 c -62.4,-23.4 -91.7,-70.2 -93.6,-148.2 -3.9,-142.3 169.6,-216.5 269.1,-115 80,78 64.3,204.7 -31.2,253.5 -60.4,33.1 -87.7,35 -144.3,9.7 z"
       id="path8"
       style="fill:#ebc000;fill-opacity:1" /><path
       d="m 2643.4,4992.2 c -60.4,-25.4 -107.3,-138.5 -83.9,-202.8 42.9,-111.2 183.3,-144.3 265.2,-60.4 79.9,78 64.3,204.7 -31.2,253.5 -62.4,33.1 -85.8,35 -150.1,9.7 z"
       id="path10"
       style="fill:#ebc000;fill-opacity:1" /><path
       d="m 3288.8,4992.2 c -97.5,-39 -117,-204.8 -33.1,-271.1 138.4,-109.2 314,33.1 249.6,202.8 -13.6,33.2 -107.3,87.7 -148.2,85.8 -13.7,0 -44.9,-7.8 -68.3,-17.5 z"
       id="path12"
       style="fill:#ebc000;fill-opacity:1" /><path
       d="m 3932.3,4992.2 c -146.2,-58.5 -87.7,-312 72.2,-312 159.9,0 218.4,230.1 76,302.2 -62.4,33.2 -85.8,35.1 -148.2,9.8 z"
       id="path14"
       style="fill:#ebc000;fill-opacity:1" /><path
       d="m 4579.7,4990.2 c -101.4,-58.5 -120.9,-181.4 -39,-261.3 97.5,-99.5 263.3,-33.2 263.3,107.3 0,41 -15.6,91.7 -33.2,115 -42.9,48.8 -138.4,68.3 -191.1,39 z"
       id="path16"
       style="fill:#ebc000;fill-opacity:1" /><path
       d="m 5223.2,4990.2 c -101.4,-58.5 -120.9,-181.4 -39,-261.3 99.5,-101.4 273,-27.3 269.1,117 -1.9,42.9 -17.6,87.7 -39,109.2 -44.8,46.8 -140.4,64.4 -191.1,35.1 z"
       id="path18"
       style="fill:#ebc000;fill-opacity:1" /><path
       d="m 5866.7,4990.2 c -101.4,-58.5 -120.9,-181.4 -39,-261.3 60.5,-62.4 146.3,-62.4 216.5,-2 68.3,56.5 76,167.7 15.6,226.2 -46.8,48.8 -142.4,66.4 -193.1,37.1 z"
       id="path20"
       style="fill:#ebc000;fill-opacity:1" /><path
       d="m 6510.2,4988.3 c -99.5,-58.5 -119,-181.3 -39,-259.3 60.5,-62.4 146.3,-62.4 216.4,-2 68.3,56.5 76.1,167.7 15.6,226.2 -46.7,48.7 -142.3,66.3 -193,35.1 z"
       id="path22"
       style="fill:#ebc000;fill-opacity:1" /><path
       d="m 7124.5,4957.1 c -154.1,-154.1 42.9,-372.5 206.7,-230.1 105.3,89.7 58.5,247.7 -83.8,276.9 -52.7,9.8 -72.2,2 -122.9,-46.8 z"
       id="path24"
       style="fill:#ebc000;fill-opacity:1" /><path
       d="m 7768,4957.1 c -74.1,-76.1 -78,-154.1 -7.8,-226.2 105.3,-105.3 280.8,-27.3 280.8,124.8 0,56.5 -79.9,134.6 -150.2,148.2 -52.6,9.8 -72.1,2 -122.8,-46.8 z"
       id="path26"
       style="fill:#ebc000;fill-opacity:1" /><path
       d="m 7758.2,4319.4 c -101.4,-99.5 -27.3,-273 115,-269.1 130.6,3.9 198.9,120.9 140.4,235.9 -50.6,97.6 -177.4,113.2 -255.4,33.2 z"
       id="path28"
       style="fill:#ebc000;fill-opacity:1" /><path
       d="m 666,4270.7 c -48.8,-50.7 -56.5,-70.2 -46.8,-122.8 15.6,-80 62.4,-126.8 142.4,-142.4 52.6,-9.8 72.1,-2 122.8,46.8 74.1,76.1 78,161.9 9.8,228.2 -66.3,68.2 -152.1,64.3 -228.2,-9.8 z"
       id="path30"
       style="fill:#ebc000;fill-opacity:1" /><path
       d="m 7768,3689.6 c -74.1,-76.1 -78,-161.9 -9.7,-228.2 66.3,-68.2 152.1,-64.3 226.2,7.8 33.2,33.2 56.6,78 56.6,107.3 0,66.3 -74.1,146.3 -150.2,159.9 -52.7,9.7 -72.2,1.9 -122.9,-46.8 z"
       id="path32"
       style="fill:#ebc000;fill-opacity:1" /><path
       d="M 687.5,3627.2 C 631,3594 603.7,3498.5 631,3432.2 c 29.2,-72.2 72.2,-97.5 163.8,-97.5 132.6,0 196.9,167.7 99.5,263.3 -48.8,50.6 -146.3,64.3 -206.8,29.2 z"
       id="path34"
       style="fill:#ebc000;fill-opacity:1" /><path
       d="m 7758.2,3051.9 c -62.4,-60.4 -62.4,-146.3 -2,-216.5 85.8,-101.4 245.7,-58.5 274.9,70.2 35.2,156.1 -159.8,261.4 -272.9,146.3 z"
       id="path36"
       style="fill:#ebc000;fill-opacity:1" /><path
       d="m 718.7,2966.1 c -56.5,-23.4 -85.8,-64.4 -99.5,-134.5 -9.7,-50.7 -1.9,-70.2 46.8,-120.9 41,-39 78,-58.5 120.9,-58.5 80,0 156,76 156,154 0.1,109.2 -128.6,198.9 -224.2,159.9 z"
       id="path38"
       style="fill:#ebc000;fill-opacity:1" /><path
       d="m 7814.8,2457.2 c -107.3,-42.9 -136.5,-185.2 -56.6,-263.3 113.1,-115 308.1,-9.8 273,146.3 -21.4,97.5 -126.7,154 -216.4,117 z"
       id="path40"
       style="fill:#ebc000;fill-opacity:1" /><path
       d="m 677.8,2254.4 c -76,-64.4 -76,-173.5 0,-237.9 72.2,-62.4 138.5,-58.5 208.7,9.7 72.1,72.2 74.1,152.1 7.8,224.3 -60.6,64.3 -144.4,66.3 -216.5,3.9 z"
       id="path42"
       style="fill:#ebc000;fill-opacity:1" /><path
       d="m 7758.2,1784.4 c -62.4,-60.4 -62.4,-146.2 -2,-216.4 85.8,-101.4 245.7,-58.5 274.9,70.2 35.2,156 -159.8,261.3 -272.9,146.2 z"
       id="path44"
       style="fill:#ebc000;fill-opacity:1" /><path
       d="M 687.5,1599.2 C 631,1566 603.7,1470.5 631,1404.2 c 29.2,-72.2 72.2,-97.5 163.8,-97.5 132.6,0 196.9,167.7 99.5,263.2 -48.8,50.7 -146.3,64.4 -206.8,29.3 z"
       id="path46"
       style="fill:#ebc000;fill-opacity:1" /><path
       d="m 7814.8,1189.7 c -107.3,-42.9 -136.5,-185.3 -56.6,-263.3 113.1,-115 308.1,-9.8 273,146.3 -21.4,97.5 -126.7,154 -216.4,117 z"
       id="path48"
       style="fill:#ebc000;fill-opacity:1" /><path
       d="M 709,930.3 C 681.7,916.6 648.5,881.5 634.9,850.3 556.9,690.4 767.5,546.1 894.3,672.8 1019,795.8 863,1010.3 709,930.3 Z"
       id="path50"
       style="fill:#ebc000;fill-opacity:1" /><path
       d="m 7758.2,516.9 c -68.3,-66.3 -64.3,-152.1 9.7,-228.2 50.7,-48.8 70.2,-56.6 122.9,-46.8 76.1,13.7 150.2,93.6 150.2,159.9 0,29.2 -23.4,74.1 -56.6,107.3 -74.1,72.2 -159.9,76.1 -226.2,7.8 z"
       id="path52"
       style="fill:#ebc000;fill-opacity:1" /><path
       d="m 677.8,226.4 c -142.3,-120.9 9.8,-349 173.5,-261.3 62.4,33.1 89.7,76 89.7,142.3 0,66.3 -27.3,109.2 -89.7,142.4 -64.3,35.1 -115,27.3 -173.5,-23.4 z"
       id="path54"
       style="fill:#ebc000;fill-opacity:1" /><path
       d="m 7750.4,-128.5 c -109.2,-138.4 33.2,-313.9 202.8,-249.6 48.8,19.5 93.6,120.9 78,181.3 -21.4,85.8 -66.3,119 -157.9,119 -66.3,0 -91.7,-9.8 -122.9,-50.7 z"
       id="path56"
       style="fill:#ebc000;fill-opacity:1" /><path
       d="m 687.5,-434.6 c -128.7,-99.5 -68.3,-294.5 93.6,-294.5 140.4,0 212.5,173.6 113.1,271.1 -52.6,52.6 -154,64.3 -206.7,23.4 z"
       id="path58"
       style="fill:#ebc000;fill-opacity:1" /><path
       d="m 710.9,-1103.5 c -156,-66.3 -103.4,-300.3 66.3,-300.3 140.4,0 212.5,150.2 126.8,257.4 -46.8,62.4 -115.1,76 -193.1,42.9 z"
       id="path62"
       style="fill:#ebc000;fill-opacity:1" /><path
       d="m 681.7,-1797.7 c -29.2,-25.3 -56.5,-72.1 -62.4,-107.2 -9.7,-52.7 -1.9,-72.1 46.8,-122.9 76.1,-74.1 154.1,-78 226.2,-7.8 68.2,70.2 66.3,150.2 -5.8,224.3 -68.3,68.2 -138.5,72.1 -204.8,13.6 z"
       id="path64"
       style="fill:#ebc000;fill-opacity:1" /><path
       d="m 695.3,-2460.7 c -54.6,-25.4 -89.7,-111.2 -74.1,-177.4 31.2,-124.8 191.1,-163.8 275,-64.3 122.8,142.2 -27.3,325.5 -200.9,241.7 z"
       id="path66"
       style="fill:#ebc000;fill-opacity:1" /><path
       d="m 1342.7,-2486.1 c -101.4,-99.5 -27.3,-271.1 115,-271.1 83.9,0 142.4,48.8 159.9,136.5 7.8,46.8 0,72.2 -41,120.9 -66.2,80 -163.7,85.9 -233.9,13.7 z"
       id="path68"
       style="fill:#ebc000;fill-opacity:1" /><path
       d="m 2027.2,-2478.3 c -37.1,-29.3 -50.7,-58.5 -50.7,-107.3 0,-91.6 25.3,-134.5 97.5,-163.8 68.3,-29.2 163.8,0 195,60.5 87.7,159.9 -99.5,323.7 -241.8,210.6 z"
       id="path70"
       style="fill:#ebc000;fill-opacity:1" /><path
       d="m 2715.5,-2462.7 c -83.8,-64.4 -95.6,-163.8 -29.3,-239.9 95.5,-113.1 284.7,-39 284.7,111.1 0.1,117.1 -161.8,201 -255.4,128.8 z"
       id="path72"
       style="fill:#ebc000;fill-opacity:1" /><path
       d="m 3370.7,-2486.1 c -103.3,-101.4 -31.2,-271.1 117,-271.1 93.6,0 154,62.4 154,156 0.1,142.4 -171.5,216.5 -271,115.1 z"
       id="path74"
       style="fill:#ebc000;fill-opacity:1" /><path
       d="m 4055.2,-2480.2 c -85.8,-78 -70.2,-208.6 29.2,-261.3 163.8,-83.9 314,126.8 183.3,255.4 -60.4,62.4 -148.2,62.4 -212.5,5.9 z"
       id="path76"
       style="fill:#ebc000;fill-opacity:1" /><path
       d="m 4743.5,-2462.7 c -83.8,-64.4 -95.5,-163.8 -29.3,-239.9 64.4,-76.1 173.6,-76.1 237.9,0 25.3,29.3 46.8,70.2 46.8,91.6 0,54.6 -50.7,146.3 -87.8,161.8 -50.6,19.7 -134.4,11.9 -167.6,-13.5 z"
       id="path78"
       style="fill:#ebc000;fill-opacity:1" /><path
       d="m 5398.7,-2486.1 c -124.8,-122.8 7.8,-327.6 171.6,-265.2 70.2,27.3 118.9,136.5 93.6,204.7 -42.9,111.2 -183.3,144.4 -265.2,60.5 z"
       id="path80"
       style="fill:#ebc000;fill-opacity:1" /><path
       d="m 7766.9071,-695.78218 c -95.5,-79.9 -58.5,-243.8 60.4,-273 56.5,-13.6 144.3,17.6 177.5,62.4 42.9,54.6 33.1,156 -21.5,208.7 -60.4,62.3 -146.2,62.3 -216.4,1.9 z"
       id="path82"
       style="fill:#ebc000;fill-opacity:1" /><path
       d="m 7809.6165,-1246.7463 c -107.3,-42.9 -136.5,-185.3 -56.6,-263.3 113.1,-115 308.1,-9.8 273,146.3 -21.4,97.5 -126.7,154 -216.4,117 z"
       id="path48-1"
       style="fill:#ebc000;fill-opacity:1" /><path
       d="m 7753.0165,-1919.5463 c -68.3,-66.3 -64.3,-152.1 9.7,-228.2 50.7,-48.8 70.2,-56.6 122.9,-46.8 76.1,13.7 150.2,93.6 150.2,159.9 0,29.2 -23.4,74.1 -56.6,107.3 -74.1,72.2 -159.9,76.1 -226.2,7.8 z"
       id="path52-8"
       style="fill:#ebc000;fill-opacity:1" /></g></g>
<path
   d="m 650.32775,831.97971 v 0 c 0.16627,-5.18389 2.37148,-10.11195 6.19848,-13.65496 l 57.18155,-53.58097 c 7.90259,-7.41132 20.26775,-7.01469 27.67911,0.88786 l 107.20953,114.36457 c 21.45288,22.82564 20.25717,61.58744 -2.66514,83.08487 -11.43662,10.72572 -26.37664,16.38786 -42.07091,15.88444 -15.69436,-0.50344 -30.24078,-7.11142 -40.96641,-18.54803 L 655.63683,846.05141 c -3.54302,-3.82704 -5.4769,-8.84026 -5.30908,-14.0717 z m 75.88779,-25.27333 -28.61457,26.78972 93.81542,100.03349 v 0 c 3.59053,3.82858 8.42354,6.03073 13.65496,6.19854 5.23142,0.16781 10.19563,-1.72009 14.02414,-5.31066 7.65715,-7.18115 8.02298,-20.07106 0.88787,-27.67911 z"
   id="path4-8"
   style="fill:#ebc000;fill-opacity:1;stroke-width:0.475831" /><path
   d="m 463.03896,547.56979 c 1.32244,-41.22704 10.67981,-68.52424 11.60809,-71.15293 2.04004,-5.71565 6.90198,-9.94827 12.8074,-11.19357 5.9476,-1.24396 12.08887,0.68316 16.20854,5.11949 l 173.3687,184.85963 c 6.56917,7.00457 6.21759,17.96472 -0.78698,24.53388 -7.00456,6.56916 -17.96471,6.2176 -24.53387,-0.78698 L 500.49639,517.75593 c -7.29772,47.28063 -7.70313,144.11159 80.02302,237.60868 l 23.13489,24.66824 89.40769,-82.5826 c 7.04402,-6.4835 18.04362,-6.04627 24.52712,0.99775 6.52565,7.04536 6.04762,18.00146 -0.95559,24.52847 l -89.4077,82.5826 c -13.95886,12.88675 -35.87647,12.09929 -48.89373,-1.73716 L 555.19722,779.15366 C 475.71446,694.40275 461.14317,606.67029 463.03896,547.56979 Z"
   id="path6-1"
   style="fill:#ebc000;fill-opacity:1;stroke-width:0.421761" /></svg>
